<?xml version="1.0" encoding="UTF-8"?> <!-- Generator: Adobe Illustrator 25.2.0, SVG Export Plug-In . SVG Version: 6.00 Build 0) --> <svg xmlns="http://www.w3.org/2000/svg" xmlns:xlink="http://www.w3.org/1999/xlink" version="1.1" id="Layer_1" x="0px" y="0px" viewBox="0 0 1080 1080" style="enable-background:new 0 0 1080 1080;" xml:space="preserve"> <style type="text/css"> .st0{fill:#FFFFFF;} </style> <path d="M1079,1v1078H1V1H1079 M1080,0H0v1080h1080V0z"></path> <path d="M809.3,738c-6.1-2.4-10-7.2-13.5-12.5c-5.7-8.7-10-18.2-13.9-27.8c-7.2-17.7-12.8-35.9-17.7-54.4 c-6.9-26.2-14.2-52.3-22.6-78c-1.9-5.8-4.2-11.6-6.3-17.4c-2.1-5.8-6.2-9.8-11.5-12.7c-4.8-2.7-10-4.2-15.4-4.9 c-6.9-1-13.7-0.5-20.6,0.1c-8.8,0.9-17.7,1.7-26.5,2.2c-11.7,0.7-23.5,1.3-35.2,1.8c-10.1,0.4-20.3,0.5-30.5,0.8 c-12.6,0.4-25.1,1-37.7,1.1c-21.5,0.3-43,0.5-64.5,0.4c-13.8-0.1-27.7-0.6-41.5-1.3c-12.9-0.7-25.7-1.8-38.5-2.8 c-3.4-0.3-6.8-1.1-10.2-1.7c-11.7-1.8-23.4-2.3-35,0.3c-1.1,0.2-2.2,0.6-3.2,1c-4.6,1.6-8.1,4.4-9.9,9.1 c-4.1,10.8-8.4,21.4-12.4,32.2c-9.2,24.8-18.1,49.7-27.5,74.4c-6.7,17.5-13.3,35.1-21.1,52.2c-3.6,7.8-7.3,15.5-12.1,22.6 c-1.5,2.2-3.1,4.2-4.9,6.2c-1.1,1.3-2.4,2.3-3.7,3.4c-2.4,2-4.7,2.3-7.7,0.5c-10-6-20.4-11.3-31.3-15.6c-4.7-1.9-9.4-3.4-14.5-4 c-10.3-1.2-18.7-6.1-25.8-13.6c-5.1-5.4-8.5-11.8-11.2-18.6c-4.6-11.4-7.2-23.3-8.3-35.6c-1.2-13.3-1.8-26.6-2.1-40 c-0.1-2.3-0.2-4.6-0.3-6.9c0-0.5-0.3-1-0.4-1.6c0-12.5,0-24.9,0-37.4c0.5-3,1-5.9,1.4-8.9c1.4-11.8,2.6-23.7,4.1-35.5 c1.5-12.1,3-24.1,4.7-36.1c1.5-10.9,3.2-21.8,5.7-32.6c3.8-16.7,7.3-33.5,11.1-50.3c3.5-15.7,7.3-31.4,13.4-46.4 c7.3-17.7,14.1-35.7,22.5-52.9c6.1-12.3,12.8-24.3,20.9-35.5c9.4-13,21.5-22.4,36.4-28.3c14.7-5.8,29.9-9.3,45.5-11.3 c8.6-1.1,17.3-1.6,26-2.5c0.9-0.1,1.9-0.3,2.8-0.5c2.4,0,4.8,0,7.2,0c0.8,0.2,1.5,0.4,2.3,0.5c8.2,1.2,15.1,4.5,19.7,11.6 c0.2,0.3,0.5,0.6,0.6,0.8c1.6,0.3,2.3-0.4,2.7-1.8c0.9-3.2,3.1-5.4,6.3-6.4c1.9-0.6,3.9-0.8,5.9-1c2.1-0.2,4.3,0.1,6.5,0 c13.6-0.5,27.1-1.3,40.7-1.7c22.5-0.7,45-1.1,67.6-1.7c0.8,0,1.5-0.2,2.3-0.3c12.3,0,24.6,0,37,0c0.9,0.1,1.9,0.3,2.8,0.3 c11.4,0.3,22.9,0.4,34.3,0.8c12.4,0.5,24.7,1.3,37.1,2.2c7.3,0.5,14.6,1.4,22,2.1c8.2,0.9,16.4,1.9,24.5,2.7c3,0.3,5,1.7,6,4.4 c0.5,1.2,0.8,2.7,0.7,4c-0.1,1.8,0.7,2.8,2.4,3.3c0.6-1.2,1.1-2.4,1.7-3.5c3.2-6,8.1-10,14.6-11.9c3.6-1,7.4-1.4,11.2-0.9 c5.9,0.7,11.7,1.4,17.6,2.4c14.6,2.4,29.1,4.9,43.7,7.6c5.3,0.9,10.5,1.8,15.6,3.8c12.6,4.9,23,12.4,30.7,23.6 c2.3,3.3,4.6,6.6,6.7,9.9c25.9,41.1,43,85.7,52.4,133.3c2.7,13.4,4.8,26.9,6.8,40.4c2.1,14.4,3.9,28.8,5.6,43.3 c1.4,11.7,2.5,23.5,3.6,35.3c1.2,12.2,2.5,24.5,2.4,36.8c0,0.6,0.2,1.2,0.3,1.8c0,21.6,0,43.2,0,64.8c-0.1,1-0.4,2-0.4,3 c0,13.8-0.8,27.6-2.1,41.4c-0.6,6-1.6,11.9-3.9,17.5c-6.8,16.9-18.8,27.5-37.2,30c-5.7,0.8-11.4,0.3-15.6-4.8 c-0.7,0.3-1.5,0.6-2.2,1c-10.2,5-19.9,10.9-29.2,17.3c-2,1.4-3.1,2.8-2.5,5.2c0,0.1-0.1,0.3-0.1,0.4c-0.8,0.6-1.7,1.2-2.5,1.8 C811.2,738,810.2,738,809.3,738z M392.8,238.7c-0.2-0.2-0.3-0.3-0.4-0.4c-0.2-0.5-0.5-1-0.7-1.5c-2.1-4.8-5.7-8-10.5-9.9 c-3.3-1.3-6.8-1.9-10.3-1.8c-2.8,0.1-5.6,0.4-8.4,0.5c-11.8,0.4-23.6,1.8-35.2,4c-11.6,2.1-22.9,5.2-33.8,9.6 c-13.1,5.3-23.9,13.4-32.2,24.9c-1.6,2.3-3.3,4.5-4.9,6.8c-8.5,12.7-15.6,26.3-21.6,40.3c-6.3,14.7-12.1,29.6-18.3,44.3 c-3.1,7.3-5.5,14.8-7.2,22.6c-3.6,15.5-7,31-10.5,46.5c-2.1,9.2-4.4,18.3-6.1,27.6c-2,10.3-3.6,20.6-5.1,31 c-1.5,10.6-2.8,21.2-4.1,31.8c-1.1,9-2.1,17.9-3.2,26.9c-0.6,5.7-1.5,11.4-1.7,17.2c-0.3,11.7-0.2,23.3-0.1,35 c0.1,16.1,0.6,32.3,2,48.4c0.8,9.7,2.3,19.2,5.3,28.4c2.1,6.6,4.5,13,8.3,18.8c5.5,8.5,13,14.5,22.9,17c2.5,0.6,5.2,0.7,7.8,1.2 c1.5,0.3,2.6-0.1,3.6-1.1c3.8-3.6,6.6-7.8,8.5-12.7c3.7-9.8,7.1-19.7,9.4-29.9c2.3-9.8,4.2-19.7,7.1-29.3 c5.8-19.7,12-39.3,18.2-58.8c5.1-16,10.1-32,16.4-47.5c12.7-31.1,26.7-61.6,43.2-90.9c7.7-13.7,15.9-27,25.7-39.3 c5.5-7,11.6-13.5,18.8-18.7c1.7-1.2,3.3-2.6,4.8-4c14.7-13,24.7-28.8,28.3-48.3c1.2-6.4,1.4-12.9,0.1-19.3 c-1.9-9.6-4.1-19.2-6.1-28.8c-2.7-13.1-5.4-26.3-8.1-39.4c-0.1-0.3-0.2-0.6-0.3-1C393.8,238.7,393.3,238.7,392.8,238.7z M695.2,248.5c-0.2,0.6-0.4,1-0.5,1.3c-2,7.6-4,15.1-5.8,22.7c-3.4,14.1-5.6,28.4-7.7,42.7c-0.6,3.9-0.8,7.7-0.2,11.7 c3,18.9,12.1,34.1,27.8,45.3c3.2,2.3,6.2,4.9,9,7.5c5.1,4.8,9.4,10.2,13.5,15.9c16.2,22.4,29.3,46.5,40.5,71.7 c10.7,24.1,20.1,48.7,29.2,73.5c12.3,33.6,23.5,67.6,32.1,102.4c3.7,15,6.9,30,9,45.3c0.7,5.5,2.6,10.7,4.8,15.8 c0.4,1,1,1.7,2.2,1.8c2.1,0.2,3.7,1.2,5,2.9c0.6,0.7,1.6,1.3,2.6,1.6c2.9,0.9,5.9,0.8,8.8,0.2c8.9-1.5,16.4-5.8,22.3-12.5 c6.8-7.7,10.3-16.9,11.2-27c1.1-12.5,2-25,2.4-37.6c0.5-16.4,0.6-32.8,0.6-49.2c0-16.5-0.1-33.1-1.8-49.6 c-1.3-12.6-2.2-25.2-3.6-37.7c-1.7-15.2-3.6-30.3-5.6-45.4c-2.2-17.2-5.1-34.3-8.6-51.3c-7.9-38.4-21.2-74.8-39.9-109.2 c-5.2-9.5-10.8-18.7-17-27.5c-9.5-13.7-22.6-21.8-38.9-24.9c-19.5-3.7-39-7.2-58.6-9.9c-3.8-0.5-7.6-0.5-11.5-0.7 c-0.9,0-1.8,0.3-2.9,0.5c0.4,2.9,0.7,5.7,1.1,8.4c-0.2,0-0.4,0.1-0.6,0.1c-0.4-2.7-0.9-5.4-1.4-8.4c-9.4,3.3-12.9,10.5-13.9,19.4 C697.6,248.5,696.5,248.5,695.2,248.5z M685.8,233.3c-2.9-0.2-5.6-0.4-8.3-0.7c-5.4-0.6-10.8-1.5-16.2-2c-11.5-1.1-23.1-2.4-34.6-3 c-17.1-1-34.2-1.8-51.3-2.2c-29.3-0.6-58.7-0.3-88,0.7c-12.6,0.4-25.3,0.9-37.9,1.3c-12.6,0.4-25.3,0.8-37.9,1.2 c-1.3,0-2.6,0.2-3.8,0.4c-2.7,0.6-3.8,2.4-3.4,5.1c0.1,0.7,0.1,1.4,0.2,2.1c-0.7,0.3-1.3,0.5-2,0.7c0.1,0.6,0.1,1.2,0.2,1.7 c4.7,24.2,9.5,48.4,14.3,72.6c0.7,3.7,1.2,7.5,2.3,11c2,6.3,5.5,11.9,10.2,16.6c3.7,3.8,7.9,6.8,12.8,8.7c4.4,1.7,8.9,2.6,13.6,1.7 c1.6-0.3,3.3-0.8,4.9-0.9c4.6-0.3,9.3-0.7,13.9-0.7c17-0.1,33.9-0.1,50.9,0.1c21.7,0.3,43.3,0.7,65,1.2c15.8,0.4,31.7,0.9,47.5,1.3 c1,0,2.1,0,3.1-0.3c5.3-1.7,10.3-3.9,15-6.9c7-4.6,11.7-10.8,13.9-18.9c1.1-4.2,2.4-8.4,3.4-12.7c2.8-12.1,5.5-24.1,8.1-36.2 c1.9-8.9,3.7-17.8,5.5-26.8c0-0.2,0-0.4,0-0.7c-0.6-0.2-1.1-0.4-1.8-0.6c0.2-2.3,0.5-4.6,0.7-6.9C686.1,238,687,235.7,685.8,233.3z M741.4,546.4c0.4,1.2,0.6,1.8,0.8,2.5c1.2,3.5,2.6,6.9,3.7,10.4c9.2,27.7,16.9,55.8,24.4,83.9c5.1,19.1,11,37.9,18.7,56.1 c3.4,8.1,7.1,16.1,12.1,23.4c1.6,2.4,3.6,4.5,5.4,6.7c0.4,0.4,0.9,0.7,1.7,1.2c-0.2-1.6-0.3-2.8-0.4-4c0-0.6-0.2-1.6,0.1-1.8 c1.2-1.1,0.7-2.1,0.4-3.3c-3.1-11.7-6.1-23.5-9.2-35.2c-7.1-26-14.6-51.8-23.5-77.2c-4-11.3-8.2-22.5-13.4-33.3 c-3-6.2-6.2-12.3-11.2-17.2c-0.2-0.2-0.5-0.5-0.6-0.8c-1.8-3.9-4.8-6.8-7.5-9.9C742.7,547.4,742.2,547.1,741.4,546.4z M268.6,727.7 c0.8-0.3,1.3-0.3,1.5-0.5c1.1-0.9,2.3-1.8,3.1-3c2.6-3.5,5.2-7.1,7.5-10.8c5-8.4,8.9-17.3,12.6-26.4c11.5-28.2,22.2-56.6,32.7-85.2 c7.5-20.6,15.4-41,23.1-61.5c0.1-0.3,0.2-0.6,0.2-1c-1,0.7-1.7,1.6-2.4,2.5c-3.5,5-7.2,9.8-10.4,14.9 c-12.3,19.1-22.3,39.5-31.2,60.4c-15,35-26.5,71.2-36.2,108C268.8,725.9,268.8,726.6,268.6,727.7z M666.3,465.8 c29.5-0.1,53-23.2,53.6-52.2c0.6-30.7-23.9-53.5-51.7-54.3c-29.4-0.8-54.2,22.5-54.8,52.2C612.9,441.3,636.4,465.4,666.3,465.8z M476.4,412.8c0.1-29.3-23.8-53.3-53-53.3c-29.5-0.1-53.3,23.6-53.5,52.9c-0.2,28.9,23.1,53.5,53.2,53.5 C452.5,466,476.3,442.3,476.4,412.8z M543.7,522.6c-12.8,0-25.6,0-38.4,0c-0.8,0-1.6,0-2.4,0.1c-2,0.3-3.5,2-3.6,3.9 c-0.1,1.9,1.2,3.8,3.1,4.3c0.8,0.2,1.7,0.3,2.6,0.3c25.8,0,51.7,0,77.5,0c0.9,0,1.8-0.1,2.6-0.3c2-0.5,3.1-2.2,3-4.4 c-0.1-1.9-1.5-3.5-3.4-3.8c-0.8-0.1-1.6-0.1-2.4-0.1C569.4,522.6,556.6,522.6,543.7,522.6z M544.4,432.9c0.1-0.4,0.1-0.7,0.1-1 c0.2-8.8,0.5-17.6,0.7-26.4c0-0.6-0.1-1.3,0.1-1.9c0.1-0.4,0.7-0.9,0.9-0.8c0.4,0.1,1,0.5,1.1,1c0.2,0.5-0.1,1.1,0,1.7 c0.1,3.2,0.2,6.4,0.5,9.5c0.1,1.4,1,2.5,2.6,2.8c1.7,0.2,3.2-0.5,3.9-2c0.6-1.4,1.2-2.8,1.5-4.3c0.9-3.8-0.4-7-3.6-9.2 c-3.3-2.3-7-3.9-10.9-4.8c-1.2-0.3-2.4-0.8-3.7-0.2c-0.1,0.4-0.2,0.6-0.2,0.8c0,9.6,0,19.2,0,28.8c0,0.8,0.2,1.6,0.4,2.4 C538.9,432.2,540.9,433.4,544.4,432.9z M542,459.1C542,459.1,542,459.1,542,459.1c-0.4,0-0.8,0-1.2,0c-3.7,0-7.4-0.1-11,0.1 c-2.9,0.1-5,2.5-5.2,5.3c-0.1,2.9,1.7,5.3,4.5,5.9c0.9,0.2,1.7,0.2,2.6,0.2c6.7,0,13.4,0,20.1,0c1,0,1.9-0.1,2.8-0.3 c3.3-0.8,5.2-4.2,4-7.4c-0.8-2.4-2.7-3.8-5.5-3.8C549.5,459,545.7,459.1,542,459.1z M558.6,424c-0.6,1.4-2,1.3-3.2,1.5 c-2.1,0.4-4.3,0.7-6.3,1.2c-2.3,0.5-2.9,1.5-2.3,3.8c0.3,1.2,0.9,1.6,2.1,1.3c0.8-0.2,1.7-0.6,2.5-0.9c3.5-1.3,6.9-3,10.8-3 c1.5,0,2.6-1,3.4-2.4c0.9-1.7,0.8-2.4-1-3.2c-2.5-1.1-5.2-2-7.9-2.9c0.1-0.3,0.3-0.9,0.4-1.5c0.1-0.6,0.2-1.2,0.3-1.9 c-2.7,2.5-5.5,4.2-8.7,5.3c-0.3,0.1-0.6,0.3-0.8,0.5c-1.1,0.9-1.1,1.5-0.1,3.2c1-0.3,2.1-0.6,3.1-0.9c1.9-0.4,3.7-0.9,5.6-1.2 C557.2,422.7,558.3,422.7,558.6,424z M535.1,417.6c-4.3,1.1-8.4,2.1-12.4,3.3c-1.2,0.4-2.3,1.4-3.1,2.5c-1.9,2.8-0.8,5.2,2.5,5.7 c4.2,0.7,8.3-0.2,12.3-1.3c0.5-0.1,1-0.9,1.1-1.4c0.2-0.8,0-1.6,0-2.7c-1.1,0.3-1.9,0.6-2.6,0.8c-1.3,0.3-2.6,0.6-4,0.9 c-0.7,0.1-1.4,0.1-1.4-0.8c0-0.3,0.7-0.7,1.1-0.9c1.6-0.6,3.2-0.9,4.7-1.6C535.3,421.2,535.7,419.9,535.1,417.6z M528.5,381.1 c0-2.1-1.6-3.8-3.7-3.9c-2.2-0.1-4,1.6-4,3.9c0,2.1,1.7,3.8,3.8,3.8C526.7,384.9,528.4,383.1,528.5,381.1z M541.5,381.1 c0-2.1-1.6-3.8-3.7-3.9c-2.2-0.1-4,1.6-4,3.9c0,2.1,1.7,3.8,3.8,3.8C539.7,384.9,541.4,383.2,541.5,381.1z M550.6,384.8 c2.1,0,3.8-1.7,3.8-3.8c0-2.1-1.6-3.8-3.7-3.9c-2.2-0.1-4,1.7-4,3.9C546.8,383.1,548.6,384.8,550.6,384.8z M516.9,364.9 c-2,0-3.8,1.7-3.8,3.8c0,2.1,1.6,3.8,3.7,3.9c2.2,0.1,4-1.7,3.9-3.9C520.8,366.6,519,364.9,516.9,364.9z M529.9,364.9 c-2,0-3.8,1.8-3.8,3.9c0,2.2,1.8,3.9,4,3.8c2.1-0.1,3.7-1.8,3.6-3.9C533.7,366.5,532,364.8,529.9,364.9z M546.8,368.8 c0-2.1-1.6-3.9-3.7-3.9c-2.1-0.1-4,1.8-4,3.9c0,2.1,1.8,3.8,3.9,3.8C545.1,372.6,546.8,371,546.8,368.8z M567.5,381 c0-2.2-1.6-3.8-3.8-3.8c-2.1,0-3.8,1.7-3.9,3.7c0,2.1,1.8,4,4,3.9C565.9,384.8,567.5,383.1,567.5,381z M571.2,364.9 c-2.1,0.1-3.8,1.9-3.8,3.9c0,2.2,1.9,3.9,4.1,3.8c2.1-0.1,3.7-1.8,3.6-4C575,366.5,573.3,364.8,571.2,364.9z M561.3,368.8 c0-2.1-1.7-3.8-3.7-3.9c-2.1-0.1-4,1.8-3.9,4c0,2.1,1.7,3.7,3.9,3.7C559.7,372.5,561.3,370.9,561.3,368.8z"></path> <path class="st0" d="M528,218.9c-0.8,0.1-1.5,0.3-2.3,0.3c-22.5,0.6-45,1-67.6,1.7c-13.6,0.4-27.1,1.1-40.7,1.7 c-2.2,0.1-4.3-0.1-6.5,0c-2,0.1-4,0.4-5.9,1c-3.2,1-5.4,3.2-6.3,6.4c-0.4,1.4-1.1,2.1-2.7,1.8c-0.1-0.2-0.4-0.5-0.6-0.8 c-4.6-7.2-11.5-10.5-19.7-11.6c-0.8-0.1-1.5-0.3-2.3-0.5C425,218.9,476.5,218.9,528,218.9z"></path> <path class="st0" d="M392.8,238.7c0.5,0,1,0,1.6,0c0.1,0.4,0.2,0.7,0.3,1c2.7,13.1,5.4,26.3,8.1,39.4c2,9.6,4.2,19.2,6.1,28.8 c1.3,6.4,1.1,12.9-0.1,19.3c-3.6,19.5-13.6,35.3-28.3,48.3c-1.6,1.4-3.1,2.8-4.8,4c-7.3,5.2-13.3,11.7-18.8,18.7 c-9.8,12.3-18,25.6-25.7,39.3c-16.4,29.3-30.5,59.8-43.2,90.9c-6.4,15.5-11.4,31.6-16.4,47.5c-6.2,19.6-12.4,39.1-18.2,58.8 c-2.8,9.6-4.8,19.5-7.1,29.3c-2.4,10.2-5.7,20.1-9.4,29.9c-1.9,4.8-4.7,9.1-8.5,12.7c-1.1,1-2.1,1.5-3.6,1.1 c-2.6-0.6-5.3-0.6-7.8-1.2c-10-2.5-17.4-8.5-22.9-17c-3.8-5.8-6.2-12.2-8.3-18.8c-3-9.3-4.5-18.8-5.3-28.4 c-1.4-16.1-1.9-32.2-2-48.4c-0.1-11.7-0.2-23.3,0.1-35c0.1-5.7,1-11.5,1.7-17.2c1-9,2-17.9,3.2-26.9c1.3-10.6,2.6-21.3,4.1-31.8 c1.5-10.4,3.1-20.7,5.1-31c1.8-9.3,4.1-18.4,6.1-27.6c3.5-15.5,6.9-31,10.5-46.5c1.8-7.7,4.2-15.2,7.2-22.6 c6.1-14.7,11.9-29.6,18.3-44.3c6-14,13.1-27.6,21.6-40.3c1.6-2.3,3.2-4.6,4.9-6.8c8.3-11.5,19.1-19.6,32.2-24.9 c10.9-4.4,22.3-7.5,33.8-9.6c11.7-2.1,23.4-3.5,35.2-4c2.8-0.1,5.6-0.4,8.4-0.5c3.5-0.1,7,0.6,10.3,1.8c4.9,1.9,8.4,5.1,10.5,9.9 c0.2,0.5,0.5,1,0.7,1.5C392.5,238.4,392.6,238.5,392.8,238.7z M384,323.9c0-37-29.9-66.9-66.5-67.3c-36.5-0.3-67.4,29-67.9,66.4 c-0.5,36.8,29.2,67.9,67,68C353.8,391.1,384,361.1,384,323.9z M379.4,273.2c4.4,0,7.7-3.9,6.7-8.2c-1.3-5.7-2.8-11.3-4.4-16.9 c-1.1-3.8-4.7-5.7-8.5-4.7c-3.5,0.9-5.6,4.5-4.8,8.2c0.4,1.6,0.8,3.2,1.3,4.9c1,3.8,1.9,7.6,3,11.3 C373.5,271.2,376.1,273.2,379.4,273.2z M361.9,241c0.1-0.1,0.2-0.2,0.4-0.3c-1.3-2.2-4.6-5.8-6.3-6.3 C357.9,236.6,359.9,238.8,361.9,241z M377,227.9c-1.3,1.7-2.5,7.5-1.8,9C375.8,233.9,376.4,230.9,377,227.9z M366.8,230.9 c-0.2,0.1-0.3,0.1-0.5,0.2c0.4,3,1.6,6.5,2.9,7.8C368.4,236,367.6,233.4,366.8,230.9z"></path> <path class="st0" d="M695.2,248.5c1.2,0,2.3,0,3.5,0c1-9,4.4-16.1,13.9-19.4c0.5,3,0.9,5.7,1.4,8.4c0.2,0,0.4-0.1,0.6-0.1 c-0.4-2.7-0.7-5.5-1.1-8.4c1.1-0.2,2-0.5,2.9-0.5c3.8,0.2,7.7,0.2,11.5,0.7c19.6,2.7,39.1,6.2,58.6,9.9 c16.3,3.1,29.4,11.2,38.9,24.9c6.2,8.9,11.8,18.1,17,27.5c18.7,34.4,32,70.8,39.9,109.2c3.5,17,6.3,34.1,8.6,51.3 c2,15.1,3.9,30.3,5.6,45.4c1.4,12.5,2.3,25.1,3.6,37.7c1.7,16.5,1.8,33,1.8,49.6c0,16.4-0.1,32.8-0.6,49.2 c-0.4,12.5-1.3,25.1-2.4,37.6c-0.9,10.1-4.3,19.3-11.2,27c-6,6.7-13.4,11-22.3,12.5c-2.9,0.5-5.9,0.7-8.8-0.2 c-0.9-0.3-2-0.8-2.6-1.6c-1.3-1.7-2.9-2.8-5-2.9c-1.2-0.1-1.8-0.8-2.2-1.8c-2.2-5.1-4-10.3-4.8-15.8c-2.1-15.3-5.3-30.4-9-45.3 c-8.6-34.8-19.9-68.7-32.1-102.4c-9.1-24.8-18.5-49.4-29.2-73.5c-11.2-25.2-24.3-49.3-40.5-71.7c-4.1-5.6-8.4-11.1-13.5-15.9 c-2.8-2.7-5.8-5.3-9-7.5C693.1,361.1,684,345.9,681,327c-0.6-3.9-0.4-7.8,0.2-11.7c2.1-14.3,4.3-28.6,7.7-42.7 c1.8-7.6,3.9-15.2,5.8-22.7C694.8,249.5,695,249.1,695.2,248.5z M707.7,323.9c0.2,38,30.7,67,66.9,67.3 c36.9,0.2,67.3-29.7,67.7-66.4c0.3-37.4-29.7-67.3-66.1-68C740,256.1,708,284.8,707.7,323.9z M714.5,273.2c3.4,0,5.9-2.1,6.8-5.6 c1.3-5.3,2.5-10.6,3.7-15.9c0.9-4-1.2-7.5-5.1-8.5c-3.8-0.9-7.3,1.2-8.4,5.2c-1.4,5.5-2.7,11-3.9,16.5 C706.8,269.3,710.1,273.2,714.5,273.2z M733.8,234.8c-0.1-0.1-0.3-0.3-0.4-0.4c-2.4,1.7-5.9,5.5-6.5,7.4 C729.5,239.3,731.6,237,733.8,234.8z M720.7,239.3c0.2,0,0.4,0.1,0.6,0.1c0.9-2.5,1.6-5,2.1-7.6c-0.2-0.1-0.4-0.1-0.6-0.2 C722.2,234.2,721.5,236.7,720.7,239.3z"></path> <path class="st0" d="M685.8,233.3c1.2,2.5,0.3,4.8,0.1,7c-0.2,2.3-0.4,4.6-0.7,6.9c0.7,0.3,1.2,0.4,1.8,0.6c0,0.2,0,0.5,0,0.7 c-1.8,8.9-3.5,17.9-5.5,26.8c-2.6,12.1-5.3,24.2-8.1,36.2c-1,4.3-2.3,8.5-3.4,12.7c-2.2,8.1-6.9,14.3-13.9,18.9 c-4.6,3.1-9.7,5.3-15,6.9c-1,0.3-2,0.3-3.1,0.3c-15.8-0.4-31.7-1-47.5-1.3c-21.7-0.5-43.3-0.9-65-1.2c-17-0.2-33.9-0.2-50.9-0.1 c-4.6,0-9.3,0.4-13.9,0.7c-1.7,0.1-3.3,0.6-4.9,0.9c-4.7,0.9-9.2,0.1-13.6-1.7c-4.9-1.9-9.1-4.9-12.8-8.7 c-4.6-4.8-8.1-10.3-10.2-16.6c-1.1-3.6-1.6-7.3-2.3-11c-4.8-24.2-9.5-48.4-14.3-72.6c-0.1-0.5-0.1-1.1-0.2-1.7 c0.7-0.2,1.2-0.4,2-0.7c-0.1-0.7-0.1-1.4-0.2-2.1c-0.4-2.7,0.7-4.5,3.4-5.1c1.2-0.3,2.5-0.4,3.8-0.4c12.6-0.4,25.3-0.8,37.9-1.2 c12.6-0.4,25.3-0.9,37.9-1.3c29.3-1,58.7-1.3,88-0.7c17.1,0.3,34.2,1.2,51.3,2.2c11.6,0.7,23.1,1.9,34.6,3c5.4,0.5,10.8,1.4,16.2,2 C680.2,232.9,683,233,685.8,233.3z"></path> <path class="st0" d="M741.4,546.4c0.8,0.7,1.3,1,1.6,1.4c2.7,3.1,5.7,6,7.5,9.9c0.1,0.3,0.4,0.5,0.6,0.8c5,4.9,8.1,11,11.2,17.2 c5.2,10.8,9.5,22,13.4,33.3c8.9,25.4,16.4,51.2,23.5,77.2c3.2,11.7,6.2,23.5,9.2,35.2c0.3,1.1,0.9,2.2-0.4,3.3 c-0.3,0.3-0.2,1.2-0.1,1.8c0.1,1.2,0.2,2.4,0.4,4c-0.8-0.5-1.4-0.8-1.7-1.2c-1.9-2.2-3.8-4.3-5.4-6.7c-5-7.3-8.7-15.3-12.1-23.4 c-7.7-18.2-13.6-37-18.7-56.1c-7.5-28.2-15.2-56.3-24.4-83.9c-1.2-3.5-2.5-6.9-3.7-10.4C742,548.2,741.8,547.5,741.4,546.4z"></path> <path class="st0" d="M268.6,727.7c0.2-1.1,0.2-1.8,0.4-2.5c9.7-36.8,21.3-73,36.2-108c8.9-20.9,18.9-41.3,31.2-60.4 c3.3-5.1,6.9-10,10.4-14.9c0.6-0.9,1.4-1.7,2.4-2.5c-0.1,0.3-0.1,0.7-0.2,1c-7.7,20.5-15.6,40.9-23.1,61.5 c-10.4,28.6-21.1,57.1-32.7,85.2c-3.7,9-7.6,17.9-12.6,26.4c-2.2,3.8-4.9,7.3-7.5,10.8c-0.8,1.1-2,2-3.1,3 C269.9,727.4,269.4,727.4,268.6,727.7z"></path> <path class="st0" d="M666.3,465.8c-29.9-0.4-53.4-24.5-52.9-54.3c0.5-29.7,25.4-53,54.8-52.2c27.8,0.8,52.3,23.6,51.7,54.3 C719.3,442.6,695.9,465.8,666.3,465.8z M666.4,461.9c28.2,0,50.4-23,49.6-50.7c-0.8-27.9-24.3-49.1-51.6-47.9 c-26.5,1.2-48,23.5-47,51C618.3,441,640.2,461.8,666.4,461.9z"></path> <path class="st0" d="M476.4,412.8c-0.1,29.4-23.9,53.2-53.3,53.2c-30,0-53.4-24.7-53.2-53.5c0.2-29.4,24-53,53.5-52.9 C452.6,359.6,476.5,383.6,476.4,412.8z M472.5,412.9c0.1-27.2-21.9-49.4-48.8-49.5c-27.5-0.1-49.6,21.8-49.8,49.1 c-0.2,26.3,21,49.5,49.2,49.6C450.3,462.2,472.4,440.1,472.5,412.9z"></path> <path class="st0" d="M543.7,522.6c12.9,0,25.8,0,38.6,0c0.8,0,1.6,0,2.4,0.1c1.9,0.3,3.3,1.9,3.4,3.8c0.2,2.1-1,3.8-3,4.4 c-0.8,0.2-1.7,0.3-2.6,0.3c-25.8,0-51.7,0-77.5,0c-0.9,0-1.8-0.1-2.6-0.3c-2-0.5-3.3-2.3-3.1-4.3c0.1-2,1.6-3.6,3.6-3.9 c0.8-0.1,1.6-0.1,2.4-0.1C518.1,522.6,530.9,522.6,543.7,522.6z"></path> <path class="st0" d="M544.4,432.9c-3.5,0.5-5.5-0.8-6.4-3.8c-0.2-0.8-0.4-1.6-0.4-2.4c0-9.6,0-19.2,0-28.8c0-0.2,0.1-0.5,0.2-0.8 c1.2-0.5,2.5-0.1,3.7,0.2c3.9,0.9,7.6,2.6,10.9,4.8c3.2,2.2,4.5,5.3,3.6,9.2c-0.3,1.5-0.9,2.9-1.5,4.3c-0.7,1.6-2.3,2.3-3.9,2 c-1.6-0.2-2.4-1.4-2.6-2.8c-0.3-3.2-0.4-6.4-0.5-9.5c0-0.6,0.2-1.2,0-1.7c-0.2-0.4-0.7-0.8-1.1-1c-0.2-0.1-0.8,0.5-0.9,0.8 c-0.2,0.6-0.1,1.3-0.1,1.9c-0.2,8.8-0.5,17.6-0.7,26.4C544.5,432.2,544.5,432.5,544.4,432.9z"></path> <path class="st0" d="M542,459.1c3.8,0,7.5-0.1,11.3,0c2.8,0.1,4.7,1.5,5.5,3.8c1.1,3.2-0.7,6.6-4,7.4c-0.9,0.2-1.9,0.3-2.8,0.3 c-6.7,0-13.4,0-20.1,0c-0.9,0-1.8-0.1-2.6-0.2c-2.8-0.6-4.7-3-4.5-5.9c0.1-2.9,2.2-5.2,5.2-5.3c3.7-0.2,7.3-0.1,11-0.1 C541.2,459.1,541.6,459.1,542,459.1C542,459.1,542,459.1,542,459.1z"></path> <path class="st0" d="M558.6,424c-0.3-1.3-1.4-1.3-2.3-1.2c-1.9,0.3-3.7,0.7-5.6,1.2c-1.1,0.3-2.1,0.6-3.1,0.9c-1-1.7-1-2.3,0.1-3.2 c0.2-0.2,0.5-0.4,0.8-0.5c3.3-1,6-2.8,8.7-5.3c-0.1,0.6-0.1,1.2-0.3,1.9c-0.1,0.6-0.4,1.2-0.4,1.5c2.7,1,5.3,1.8,7.9,2.9 c1.8,0.8,1.9,1.5,1,3.2c-0.7,1.4-1.8,2.4-3.4,2.4c-3.9,0-7.3,1.6-10.8,3c-0.8,0.3-1.6,0.7-2.5,0.9c-1.2,0.3-1.8-0.1-2.1-1.3 c-0.5-2.3,0-3.3,2.3-3.8c2.1-0.5,4.2-0.7,6.3-1.2C556.6,425.3,558,425.4,558.6,424z"></path> <path class="st0" d="M535.1,417.6c0.6,2.2,0.2,3.6-1.7,4.5c-1.5,0.7-3.2,1-4.7,1.6c-0.4,0.2-1.1,0.6-1.1,0.9 c-0.1,0.9,0.7,0.9,1.4,0.8c1.3-0.3,2.7-0.6,4-0.9c0.8-0.2,1.5-0.4,2.6-0.8c0,1.1,0.2,1.9,0,2.7c-0.1,0.5-0.6,1.2-1.1,1.4 c-4,1.1-8.1,2-12.3,1.3c-3.3-0.5-4.4-3-2.5-5.7c0.7-1.1,1.9-2.1,3.1-2.5C526.8,419.7,530.9,418.7,535.1,417.6z"></path> <path class="st0" d="M528.5,381.1c0,2.1-1.8,3.8-3.9,3.8c-2.1,0-3.8-1.7-3.8-3.8c0-2.2,1.7-3.9,4-3.9 C526.9,377.2,528.5,378.9,528.5,381.1z"></path> <path class="st0" d="M541.5,381.1c0,2.1-1.8,3.8-3.9,3.8c-2.1,0-3.8-1.7-3.8-3.8c0-2.2,1.7-3.9,4-3.9 C539.9,377.2,541.5,378.9,541.5,381.1z"></path> <path class="st0" d="M550.6,384.8c-2.1,0-3.8-1.7-3.9-3.8c0-2.2,1.8-3.9,4-3.9c2.1,0.1,3.7,1.7,3.7,3.9 C554.4,383.2,552.7,384.9,550.6,384.8z"></path> <path class="st0" d="M516.9,364.9c2.1,0,3.8,1.7,3.8,3.8c0,2.2-1.7,3.9-3.9,3.9c-2.1-0.1-3.8-1.7-3.7-3.9 C513.1,366.6,514.9,364.9,516.9,364.9z"></path> <path class="st0" d="M529.9,364.9c2.1,0,3.8,1.7,3.9,3.7c0.1,2.2-1.5,3.8-3.6,3.9c-2.2,0.1-4-1.6-4-3.8 C526.1,366.7,527.9,364.9,529.9,364.9z"></path> <path class="st0" d="M546.8,368.8c0,2.2-1.7,3.8-3.8,3.8c-2.1,0-3.8-1.7-3.9-3.8c0-2.1,1.9-4,4-3.9 C545.2,364.9,546.8,366.7,546.8,368.8z"></path> <path class="st0" d="M567.5,381c0,2.1-1.6,3.8-3.7,3.9c-2.1,0-4-1.8-4-3.9c0-2.1,1.8-3.7,3.9-3.7C565.8,377.2,567.4,378.8,567.5,381 z"></path> <path class="st0" d="M571.2,364.9c2.1-0.1,3.8,1.6,3.9,3.7c0.1,2.2-1.4,3.9-3.6,4c-2.2,0.1-4.1-1.6-4.1-3.8 C567.4,366.7,569.2,364.9,571.2,364.9z"></path> <path class="st0" d="M561.3,368.8c0,2.1-1.6,3.8-3.8,3.8c-2.1,0-3.8-1.6-3.9-3.7c0-2.2,1.8-4,3.9-4 C559.7,364.9,561.4,366.7,561.3,368.8z"></path> <path d="M384,323.9c0,37.1-30.2,67.2-67.4,67.1c-37.8-0.1-67.5-31.2-67-68c0.5-37.4,31.4-66.7,67.9-66.4 C354.1,257,384,287,384,323.9z M252.4,323.8c-0.3,34.9,28.3,64.3,64.1,64.4c35.9,0.1,64.7-28.6,64.7-64.2 c0-35.7-28.8-64.5-64.5-64.6C280.5,259.5,252.1,289.2,252.4,323.8z"></path> <path d="M379.4,273.2c-3.3,0-5.8-2-6.8-5.4c-1-3.8-2-7.6-3-11.3c-0.4-1.6-0.9-3.2-1.3-4.9c-0.8-3.7,1.3-7.3,4.8-8.2 c3.7-1,7.4,0.9,8.5,4.7c1.6,5.6,3.1,11.2,4.4,16.9C387.1,269.2,383.8,273.2,379.4,273.2z"></path> <path d="M361.9,241c-2-2.2-3.9-4.4-5.9-6.7c1.7,0.5,5,4.1,6.3,6.3C362.1,240.8,362,240.9,361.9,241z"></path> <path d="M377,227.9c-0.6,3-1.2,6-1.8,9C374.5,235.3,375.6,229.6,377,227.9z"></path> <path d="M366.8,230.9c0.8,2.5,1.6,5,2.5,8c-1.4-1.3-2.6-4.8-2.9-7.8C366.5,231,366.7,231,366.8,230.9z"></path> <path d="M707.7,323.9c0.3-39.1,32.3-67.8,68.4-67.1c36.4,0.6,66.4,30.5,66.1,68c-0.3,36.7-30.8,66.7-67.7,66.4 C738.4,390.9,707.9,361.9,707.7,323.9z M775,259.5c-34.6-0.2-64.2,27.7-64.5,63.8c-0.3,36.9,29.5,64.4,63.3,65 c34.4,0.6,65.4-26.8,65.6-64.2C839.7,288.6,810.7,259.6,775,259.5z"></path> <path d="M714.5,273.2c-4.4,0-7.7-3.9-6.8-8.2c1.2-5.5,2.5-11.1,3.9-16.5c1-4,4.6-6.2,8.4-5.2c3.8,1,6,4.5,5.1,8.5 c-1.2,5.3-2.4,10.6-3.7,15.9C720.5,271.1,717.9,273.2,714.5,273.2z"></path> <path d="M733.8,234.8c-2.2,2.2-4.3,4.4-6.9,7c0.6-1.9,4.1-5.7,6.5-7.4C733.5,234.6,733.6,234.7,733.8,234.8z"></path> <path d="M720.7,239.3c0.7-2.5,1.4-5.1,2.2-7.6c0.2,0.1,0.4,0.1,0.6,0.2c-0.5,2.6-1.2,5.1-2.1,7.6 C721.2,239.4,720.9,239.3,720.7,239.3z"></path> <path d="M666.4,461.9c-26.3-0.1-48.1-20.9-49.1-47.6c-1-27.5,20.5-49.8,47-51c27.4-1.3,50.8,20,51.6,47.9 C716.8,438.9,694.6,461.9,666.4,461.9z M666.7,386.1c-14.6,0-26.4,11.7-26.4,26.3c0,14.7,11.8,26.6,26.4,26.6 c14.6,0,26.5-11.9,26.5-26.6C693.1,397.9,681.3,386.2,666.7,386.1z"></path> <path d="M472.5,412.9c-0.1,27.2-22.2,49.3-49.4,49.2c-28.2-0.1-49.5-23.4-49.2-49.6c0.2-27.2,22.3-49.2,49.8-49.1 C450.6,363.5,472.5,385.7,472.5,412.9z M423.1,439.1c14.7,0,26.6-11.8,26.5-26.5c0-14.6-11.8-26.4-26.4-26.4 c-14.7,0-26.5,11.8-26.5,26.5C396.7,427.4,408.5,439.1,423.1,439.1z"></path> <path class="st0" d="M252.4,323.8c-0.3-34.6,28.1-64.4,64.3-64.4c35.7,0,64.5,28.9,64.5,64.6c0,35.6-28.9,64.3-64.7,64.2 C280.7,388.2,252.1,358.7,252.4,323.8z M337,300.4c0-1.1,0-1.9,0-2.7c0-5.4,0-10.9,0-16.3c0-2.9-0.1-3-2.9-3c-11.5,0-23,0-34.6,0 c-2.6,0-2.9,0.2-2.9,2.9c0,5.5,0,11,0,16.5c0,0.8-0.1,1.7-0.1,2.6c-1.1,0-1.9,0-2.7,0c-5.4,0-10.9,0-16.3,0c-2.7,0-2.9,0.2-2.9,2.8 c0,11.5,0,23,0,34.5c0,2.8,0.2,2.9,3.1,2.9c5.4,0,10.9,0,16.3,0c0.8,0,1.7,0.1,2.6,0.1c0,1.1,0,2,0,2.9c0,5.7,0,11.4,0,17 c0,2.4,0.2,2.6,2.6,2.6c11.7,0,23.4,0,35,0c2.5,0,2.7-0.2,2.7-2.7c0-5.8,0-11.5,0-17.3c0-0.8,0.1-1.6,0.1-2.6c1,0,1.8,0,2.7,0 c5.5,0,11,0,16.6,0c2.2,0,2.6-0.4,2.6-2.5c0-11.8,0-23.5,0-35.3c0-2.3-0.3-2.5-2.7-2.6c-5.4,0-10.9,0-16.3,0 C339.1,300.4,338.2,300.4,337,300.4z"></path> <path class="st0" d="M775,259.5c35.7,0.1,64.6,29,64.4,64.6c-0.3,37.4-31.2,64.8-65.6,64.2c-33.8-0.6-63.6-28.1-63.3-65 C710.8,287.2,740.4,259.4,775,259.5z M761.7,293.7c0,8.4,6.6,15.1,15,15.1c8.4,0.1,15.3-6.8,15.3-15.2c0-8.3-6.7-15.1-15-15.2 C768.5,278.5,761.7,285.3,761.7,293.7z M776.8,338.4c-8.4,0-15,6.7-15.1,15.1c0,8.5,6.7,15.2,15.2,15.2c8.3,0,15.1-6.7,15.1-15 C792,345.1,785.2,338.3,776.8,338.4z M821.8,324c0-8.5-6.7-15.3-15.2-15.2c-8.3,0-15.1,6.8-15.1,15.1c0,8.4,6.8,15.3,15.2,15.2 C815.1,339.1,821.8,332.4,821.8,324z M746.9,308.8c-8.5,0.1-15.1,6.9-15,15.4c0.1,8.3,6.8,14.9,15.1,14.9c8.4,0,15.4-7,15.2-15.3 C762,315.5,755.1,308.7,746.9,308.8z"></path> <path class="st0" d="M666.7,386.1c14.6,0,26.4,11.8,26.4,26.3c0,14.6-11.8,26.6-26.5,26.6c-14.6,0-26.4-11.9-26.4-26.6 C640.3,397.8,652.1,386.1,666.7,386.1z"></path> <path class="st0" d="M423.1,439.1c-14.6,0-26.4-11.7-26.4-26.3c0-14.7,11.8-26.5,26.5-26.5c14.6,0,26.4,11.8,26.4,26.4 C449.6,427.4,437.8,439.2,423.1,439.1z"></path> <path d="M337,300.4c1.2,0,2.1,0,2.9,0c5.4,0,10.9,0,16.3,0c2.4,0,2.7,0.3,2.7,2.6c0,11.8,0,23.5,0,35.3c0,2.1-0.4,2.5-2.6,2.5 c-5.5,0-11,0-16.6,0c-0.9,0-1.7,0-2.7,0c0,1-0.1,1.8-0.1,2.6c0,5.8,0,11.5,0,17.3c0,2.6-0.2,2.7-2.7,2.7c-11.7,0-23.4,0-35,0 c-2.4,0-2.6-0.2-2.6-2.6c0-5.7,0-11.4,0-17c0-0.9,0-1.7,0-2.9c-1,0-1.8-0.1-2.6-0.1c-5.4,0-10.9,0-16.3,0c-2.9,0-3.1-0.2-3.1-2.9 c0-11.5,0-23,0-34.5c0-2.6,0.2-2.8,2.9-2.8c5.4,0,10.9,0,16.3,0c0.8,0,1.6,0,2.7,0c0-0.9,0.1-1.8,0.1-2.6c0-5.5,0-11,0-16.5 c0-2.7,0.2-2.9,2.9-2.9c11.5,0,23,0,34.6,0c2.8,0,2.9,0.1,2.9,3c0,5.4,0,10.9,0,16.3C337,298.5,337,299.3,337,300.4z M334.2,281.3 c-11.7,0-23,0-34.5,0c0,0.9-0.1,1.7-0.1,2.5c0,5.5,0,11,0,16.6c0,2.7-0.2,2.9-2.8,2.9c-5.5,0-11,0-16.6,0c-0.8,0-1.7,0.1-2.5,0.1 c0,11.6,0,22.9,0,34.4c0.9,0,1.7,0.1,2.5,0.1c5.5,0,11,0,16.6,0c2.7,0,2.9,0.2,2.9,2.8c0,5.8,0,11.7,0,17.5c0,0.7,0.1,1.4,0.1,2.2 c11.5,0,22.9,0,34.5,0c0-2.5,0-4.9,0-7.3c0-4.2,0-8.5,0-12.7c0-2.1,0.4-2.4,2.5-2.5c0.5,0,1,0,1.4,0c5.2,0,10.4,0,15.6,0 c0.8,0,1.5-0.1,2.2-0.1c0-11.6,0-23,0-34.5c-1,0-1.7,0-2.5,0c-5.3,0-10.6,0-15.8,0c-3.3,0-3.4-0.1-3.4-3.3c0-5.3,0-10.6,0-15.8 C334.2,283.2,334.2,282.4,334.2,281.3z"></path> <path d="M761.7,293.7c0-8.5,6.8-15.3,15.2-15.2c8.3,0.1,15,6.9,15,15.2c0,8.4-6.9,15.2-15.3,15.2 C768.4,308.8,761.7,302.1,761.7,293.7z"></path> <path d="M776.8,338.4c8.4,0,15.2,6.8,15.2,15.2c0,8.3-6.8,15-15.1,15c-8.5,0-15.2-6.7-15.2-15.2C761.7,345,768.4,338.4,776.8,338.4z "></path> <path d="M821.8,324c0,8.4-6.7,15.1-15.1,15.1c-8.4,0-15.2-6.8-15.2-15.2c0-8.3,6.8-15,15.1-15.1C815.1,308.7,821.9,315.5,821.8,324z "></path> <path d="M746.9,308.8c8.3-0.1,15.2,6.7,15.3,15c0.1,8.3-6.8,15.3-15.2,15.3c-8.3,0-15-6.6-15.1-14.9 C731.8,315.7,738.4,308.9,746.9,308.8z"></path> <path class="st0" d="M334.2,281.3c0,1.1,0,1.9,0,2.8c0,5.3,0,10.6,0,15.8c0,3.2,0.1,3.3,3.4,3.3c5.3,0,10.6,0,15.8,0 c0.8,0,1.6,0,2.5,0c0,11.5,0,22.8,0,34.5c-0.7,0-1.4,0.1-2.2,0.1c-5.2,0-10.4,0-15.6,0c-0.5,0-1,0-1.4,0c-2.2,0.1-2.5,0.4-2.5,2.5 c0,4.2,0,8.5,0,12.7c0,2.4,0,4.8,0,7.3c-11.6,0-23,0-34.5,0c0-0.8-0.1-1.5-0.1-2.2c0-5.8,0-11.7,0-17.5c0-2.7-0.2-2.8-2.9-2.8 c-5.5,0-11,0-16.6,0c-0.8,0-1.6-0.1-2.5-0.1c0-11.5,0-22.8,0-34.4c0.8,0,1.7-0.1,2.5-0.1c5.5,0,11,0,16.6,0c2.6,0,2.8-0.2,2.8-2.9 c0-5.5,0-11,0-16.6c0-0.8,0.1-1.6,0.1-2.5C311.2,281.3,322.5,281.3,334.2,281.3z M331.1,306.4c0-3.8,0-7.4,0-11c0-3.6,0-7.3,0-11 c-9.6,0-18.8,0-28.4,0c0,7.3,0,14.6,0,22c-3.9,0-7.5,0-11.1,0c-3.6,0-7.2,0-10.7,0c-0.5,3.1-0.4,26.6,0.2,28.3c3.6,0,7.1,0,10.7,0 c3.6,0,7.1-0.1,11,0.1c0,7.5,0,14.6,0,21.9c9.5,0,18.8,0,28.3,0c0-7.3,0-14.5,0-22c7.5,0,14.7,0,22,0c0-9.6,0-18.8,0-28.3 C345.7,306.4,338.6,306.4,331.1,306.4z"></path> <path d="M331.1,306.4c7.4,0,14.6,0,21.9,0c0,9.5,0,18.7,0,28.3c-7.3,0-14.5,0-22,0c0,7.5,0,14.7,0,22c-9.5,0-18.7,0-28.3,0 c0-7.2,0-14.4,0-21.9c-3.8-0.1-7.4-0.1-11-0.1c-3.6,0-7.2,0-10.7,0c-0.6-1.8-0.7-25.2-0.2-28.3c3.5,0,7.1,0,10.7,0 c3.6,0,7.2,0,11.1,0c0-7.5,0-14.7,0-22c9.6,0,18.8,0,28.4,0c0,3.7,0,7.4,0,11C331.1,299,331.1,302.6,331.1,306.4z"></path> </svg> 